# xmcd
#
# Track frame offsets: 
#        150
#        14376
#        26807
#        44773
#        57131
#        71237
#        83821
#        101171
#        115579
#        129894
#        141120
#        162835
#        182528
#        195575
#        207061
#        217445
#        234279
#
# Disc length: 3277 seconds
#
# Revision: 0
# Processed by: cddbd v1.5.2PL0 Copyright (c) Steve Scherf et al.
# Submitted via: ExactAudioCopy v0.99pb5
#
DISCID=f10ccb11
DTITLE=Tim Sparks - Sidewalk Blues
DYEAR=2009
DGENRE=Blues
TTITLE0=Mississippi Blues
TTITLE1=Sidewalk Blues
TTITLE2=Oriental Blues
TTITLE3=Potato Head Blues
TTITLE4=In A Mist
TTITLE5=The Alligator Crawl
TTITLE6=How Greate Thou Art
TTITLE7=There Aini't No Sweet Man That's Worth The Salt O' My Tears
TTITLE8=The Pearls
TTITLE9=Maple Leaf Rag
TTITLE10=This Great Caravan Keeps On Rolling Along
TTITLE11=Going' Back To Mississippi Blues
TTITLE12=Carolina Shout
TTITLE13=I'll Fly Away
TTITLE14=Victory Rag
TTITLE15=Jelly Roll Blues
TTITLE16=Amazing Grace
EXTD=
EXTT0=
EXTT1=
EXTT2=
EXTT3=
EXTT4=
EXTT5=
EXTT6=
EXTT7=
EXTT8=
EXTT9=
EXTT10=
EXTT11=
EXTT12=
EXTT13=
EXTT14=
EXTT15=
EXTT16=
PLAYORDER=
